
        <svg xmlns="http://www.w3.org/2000/svg" xmlns:xlink="http://www.w3.org/1999/xlink" version="1.1" width="200" height="55" viewBox="0 0 3223.9656909763394 497.2476814565898">
			
			<g transform="scale(11.198284548816973) translate(10, 10)">
				<defs id="SvgjsDefs2404"/><g id="SvgjsG2405" featureKey="symbolFeature-0" transform="matrix(0.7094162702560425,0,0,0.7094162702560425,-4.965916636101338,-23.538985925164056)" fill="#fff"><g xmlns="http://www.w3.org/2000/svg" transform="translate(0,-952.36218)"><path style="color:;enable-background:accumulate;" d="m 7.000009,1016.3622 16,-1 c 0,-3.0491 2,-8 2,-8 0,0 2.5409,0 5,0 2,-4 5,-12.00002 7,-12.00002 0,0 1,-4 3,-4 2.6314,0 16.99998,9.00002 16.99998,9.00002 l -10.99998,16 c 0,0 5.41738,-2.8351 10.99998,-4 1.988,-0.4148 -0.2344,-4.7065 2,-5 1.929,-0.2534 4,-1 5,-1 1,0 2.0324,-13.24872 4,-11.00002 7,8.00002 21.4047,17.28082 25.000002,21.00002 l -12.000002,-17.00002 -3,4.00002 -9,-13.00002 -11,7 -10.99998,-8 -3,2 -5,-3 -4,6 -5,-2 -12,16.00002 -3.3749,-0.6251 -7.6251,8.6251" stroke="none" marker="none" visibility="visible" display="inline" overflow="visible"/></g></g><g id="SvgjsG2406" featureKey="nameLeftFeature-0" transform="matrix(1.6783984899520874,0,0,1.6783984899520874,78.98592053372077,-9.667572474525315)" fill="#fff"><path d="M16.2 6 l0 14 l-3 0 l0 -7.44 l-3.26 7.44 l-2.52 0 l-3.22 -7.4 l0 7.4 l-3 0 l0 -14 l2.88 0 l4.62 10.1 l4.62 -10.1 l2.88 0 z M21.520000000000003 17.32 l5.92 0 l0 2.68 l-6.32 0 l-2.52 0 l0 -14 l2.92 0 l5.74 0 l0 2.68 l-5.74 0 l0 2.96 l4.34 0 l0 2.64 l-4.34 0 l0 3.04 z M38.7 6 l2.92 0 l0 14 l-2.22 0 l-6.94 -8.68 l0 8.68 l-2.92 0 l0 -14 l2.26 0 l6.9 8.7 l0 -8.7 z M48.60000000000001 5.76 c2.46 0 4.02 1.54 4.76 2.9 l-2.16 1.28 c-0.76 -1.06 -1.5 -1.6 -2.6 -1.6 c-0.98 0 -1.7 0.58 -1.7 1.38 s0.46 1.22 1.56 1.62 l0.96 0.34 c3.1 1.1 4.32 2.48 4.32 4.4 c0 2.82 -2.68 4.22 -5.06 4.22 c-2.52 0 -4.48 -1.5 -5.16 -3.46 l2.24 -1.18 c0.5 1.02 1.34 2 2.92 2 c1.14 0 2.02 -0.5 2.02 -1.54 c0 -1 -0.6 -1.44 -2.12 -2.02 l-0.86 -0.3 c-2.06 -0.74 -3.72 -1.76 -3.72 -4.2 c0 -2.24 2.1 -3.84 4.6 -3.84 z"/></g><g id="SvgjsG2407" featureKey="nameRightFeature-0" transform="matrix(1.7431368827819824,0,0,1.7431368827819824,174.95411723986984,-10.458820951762426)" fill="#fff"><path d="M18.66 6 l-4.48 14 l-0.2 0 l-4.34 -12.72 l-4.36 12.72 l-0.2 0 l-4.48 -14 l0.54 0 l4.06 12.52 l4.34 -12.52 l0.18 0 l4.36 12.52 l4.04 -12.52 l0.54 0 z M21.040000000000003 19.42 l7.28 0 l0 0.58 l-7.68 0 l-0.18 0 l0 -14 l0.58 0 l7.1 0 l0 0.58 l-7.1 0 l0 6.1 l5.66 0 l0 0.58 l-5.66 0 l0 6.16 z M41.440000000000005 20 l-1.78 -3.98 l-8.04 0 l-1.78 3.98 l-0.62 0 l6.26 -14 l0.3 0 l6.28 14 l-0.62 0 z M31.860000000000003 15.46 l7.56 0 l-3.78 -8.46 z M53.32000000000001 20 l-0.72 0 l-4.08 -5.38 c-0.2 0.02 -0.4 0.02 -0.6 0.02 l-3.68 0 l0 5.36 l-0.58 0 l0 -14 l4.26 0 c3.14 0 4.8 1.94 4.8 4.3 c0 2.08 -1.22 3.8 -3.56 4.24 z M44.24000000000001 14.04 l3.76 0 c2.52 0 4.14 -1.46 4.14 -3.74 c0 -2.32 -1.62 -3.72 -4.14 -3.72 l-3.76 0 l0 7.46 z"/></g>
			</g>
		</svg>
	